<svg id="Layer_1" enable-background="new 0 0 64 64" height="512" viewBox="0 0 64 64" width="512" xmlns="http://www.w3.org/2000/svg"><circle cx="32" cy="16.5" fill="#f8f9fb" r="8.5"/><path d="m32 8c-.426 0-.841.042-1.25.102 4.1.606 7.25 4.129 7.25 8.398s-3.15 7.792-7.25 8.398c.409.06.824.102 1.25.102 4.694 0 8.5-3.806 8.5-8.5s-3.806-8.5-8.5-8.5z" fill="#cfddfb"/><path d="m34 50h-4v4c0 1.105.895 2 2 2 1.105 0 2-.895 2-2z" fill="#fa7300"/><path d="m30 50h4v2h-4z" fill="#e45600"/><path d="m34.684 50h-5.368c-.742 0-1.357-.573-1.41-1.313l-1.778-24.897c-.065-.912.74-1.645 1.642-1.495 2.801.467 5.659.467 8.459 0 .902-.15 1.708.583 1.642 1.495l-1.778 24.897c-.052.74-.668 1.313-1.409 1.313z" fill="#fcd248"/><path d="m29.782 48.687-1.778-24.897c-.043-.605.3-1.125.797-1.367-.344-.043-.688-.071-1.03-.128-.902-.15-1.708.583-1.642 1.495l1.778 24.897c.053.74.668 1.313 1.41 1.313h1.876c-.743 0-1.358-.573-1.411-1.313z" fill="#fce5da"/><path d="m36.23 22.295c-.406.068-.815.104-1.223.152.468.253.783.76.742 1.343l-1.779 24.897c-.053.74-.669 1.313-1.41 1.313h2.124c.742 0 1.357-.573 1.41-1.313l1.778-24.897c.065-.912-.74-1.645-1.642-1.495z" fill="#fcab48"/><path d="m41.615 18h-19.23c-.213 0-.385-.172-.385-.385v-1.23c0-.213.172-.385.385-.385h19.23c.213 0 .385.172.385.385v1.23c0 .213-.172.385-.385.385z" fill="#fcd248"/><path d="m41.615 16h-3c.213 0 .385.172.385.385v1.23c0 .213-.172.385-.385.385h3c.213 0 .385-.172.385-.385v-1.23c0-.213-.172-.385-.385-.385z" fill="#fcab48"/><path d="m33.329 38h-2.659c-.37 0-.67-.3-.67-.671v-5.659c0-.37.3-.67.671-.67h2.659c.37 0 .67.3.67.671v5.659c0 .37-.3.67-.671.67z" fill="#fa7300"/><path d="m34 34h-4v-2.329c0-.371.3-.671.671-.671h2.659c.37 0 .67.3.67.671z" fill="#f8f9fb"/><circle cx="37" cy="13.004" r=".5"/><circle cx="34" cy="16.004" r=".5"/><circle cx="28" cy="13.004" r=".5"/><circle cx="35" cy="21.004" r=".5"/><circle cx="29" cy="20.004" r=".5"/><circle cx="33" cy="11.004" r=".5"/><path d="m41.615 15.5h-.681c-.501-4.521-4.331-8-8.934-8s-8.433 3.479-8.934 8h-.681c-.488 0-.885.396-.885.885v1.23c0 .488.396.885.885.885h.847c.387 1.698 1.27 3.261 2.53 4.475-.107.266-.154.555-.133.85l.729 10.21c.021.276.281.479.534.464.276-.02.483-.259.464-.534l-.729-10.211c-.021-.28.088-.551.296-.74.208-.19.489-.273.766-.226 2.861.477 5.762.477 8.623 0 .275-.049.557.035.766.226.208.189.316.46.296.741l-1.778 24.897c-.033.476-.434.848-.911.848h-.685-4-.684c-.478 0-.878-.372-.911-.848l-.835-11.687c-.021-.276-.281-.49-.534-.464-.276.02-.483.259-.464.534l.835 11.688c.071.997.91 1.777 1.909 1.777h.184v3.5c0 1.379 1.121 2.5 2.5 2.5s2.5-1.121 2.5-2.5v-3.5h.184c.999 0 1.838-.78 1.909-1.777l1.778-24.896c.021-.296-.026-.586-.133-.851 1.26-1.214 2.143-2.776 2.53-4.475h.847c.488 0 .885-.396.885-.885v-1.23c0-.49-.396-.886-.885-.886zm-8.115 38.5c0 .827-.673 1.5-1.5 1.5s-1.5-.673-1.5-1.5v-3.5h3zm4.11-31.827c-.419-.317-.939-.459-1.463-.371-2.752.459-5.543.459-8.295 0-.527-.088-1.044.054-1.463.371-1.026-1.016-1.778-2.282-2.138-3.673h15.496c-.359 1.391-1.111 2.657-2.137 3.673zm3.89-4.673h-1.132-16.736-1.132v-1h1.015 8.485c.276 0 .5-.224.5-.5s-.224-.5-.5-.5h-7.938c.494-3.966 3.884-7 7.938-7s7.444 3.034 7.938 7h-3.938c-.276 0-.5.224-.5.5s.224.5.5.5h4.485 1.015z"/><path d="m33.329 38.5c.646 0 1.171-.525 1.171-1.171v-3.329-2.329c0-.646-.525-1.171-1.171-1.171h-2.658c-.646 0-1.171.525-1.171 1.171v2.329 3.329c0 .646.525 1.171 1.171 1.171zm-2.829-6.829c0-.095.076-.171.171-.171h2.658c.095 0 .171.076.171.171v1.829h-3zm0 5.658v-2.829h3v2.829c0 .095-.076.171-.171.171h-2.658c-.095 0-.171-.076-.171-.171z"/></svg>